PathFileType	4	(X/Y/Z)	C:\Vicon\SynologyDrive\Alex P\Athlete_3\Athlete_3_22_07_06\static_01\marker_experimental.trc																																																																																																																																																																																																																																											
DataRate	CameraRate	NumFrames	NumMarkers	Units	OrigDataRate	OrigDataStartFrame	OrigNumFrames																																																																																																																																																																																																																																							
200	200	4	79	mm	200	606	693																																																																																																																																																																																																																																							
Frame#	Time	GLAB			RFHD			LFHD			C7			T6			SPINMOL			SPINM2			SPINM3			T12			BELTOL			BELT2			BELT3			SACROL			SACR2			SACR3			LASI			RASI			LPSI			RPSI			LTHOL			LTH2			LTH3			LKNEL			LKNEM			LFIB			LSHAOL			LSHA2			LSHA3			LMALL			LMALM			LHEE			LTOE			LM5			RTHOL			RTH2			RTH3			RKNEL			RKNEM			RFIB			RSHAOL			RSHA2			RSHA3			RMALL			RMALM			RHEE			RTOE			RM5			STRN			XIPH			LACR			LUAOL			LUA2			LUA3			LCUBL			LCUBM			LLAOL			LLA2			LLA3			LWRR			LWRU			RACR			RUAOL			RUA2			RUA3			RCUBL			RCUBM			RLAOL			RLA2			RLA3			RWRR			RWRU			Bar:BL			Bar:BR			LKJCWK			RKJCWK			RAJCWK			LAJCWK			RHJCWK			LHJCWK		
		X1	Y1	Z1	X2	Y2	Z2	X3	Y3	Z3	X4	Y4	Z4	X5	Y5	Z5	X6	Y6	Z6	X7	Y7	Z7	X8	Y8	Z8	X9	Y9	Z9	X10	Y10	Z10	X11	Y11	Z11	X12	Y12	Z12	X13	Y13	Z13	X14	Y14	Z14	X15	Y15	Z15	X16	Y16	Z16	X17	Y17	Z17	X18	Y18	Z18	X19	Y19	Z19	X20	Y20	Z20	X21	Y21	Z21	X22	Y22	Z22	X23	Y23	Z23	X24	Y24	Z24	X25	Y25	Z25	X26	Y26	Z26	X27	Y27	Z27	X28	Y28	Z28	X29	Y29	Z29	X30	Y30	Z30	X31	Y31	Z31	X32	Y32	Z32	X33	Y33	Z33	X34	Y34	Z34	X35	Y35	Z35	X36	Y36	Z36	X37	Y37	Z37	X38	Y38	Z38	X39	Y39	Z39	X40	Y40	Z40	X41	Y41	Z41	X42	Y42	Z42	X43	Y43	Z43	X44	Y44	Z44	X45	Y45	Z45	X46	Y46	Z46	X47	Y47	Z47	X48	Y48	Z48	X49	Y49	Z49	X50	Y50	Z50	X51	Y51	Z51	X52	Y52	Z52	X53	Y53	Z53	X54	Y54	Z54	X55	Y55	Z55	X56	Y56	Z56	X57	Y57	Z57	X58	Y58	Z58	X59	Y59	Z59	X60	Y60	Z60	X61	Y61	Z61	X62	Y62	Z62	X63	Y63	Z63	X64	Y64	Z64	X65	Y65	Z65	X66	Y66	Z66	X67	Y67	Z67	X68	Y68	Z68	X69	Y69	Z69	X70	Y70	Z70	X71	Y71	Z71	X72	Y72	Z72	X73	Y73	Z73	X74	Y74	Z74	X75	Y75	Z75	X76	Y76	Z76	X77	Y77	Z77	X78	Y78	Z78	X79	Y79	Z79
																																																																																																																																																																																																																																														
607	3.03	350.5627747	1575.455566	-1216.924072	291.9929504	1589.534058	-1140.085938	287.1202087	1589.979004	-1292.265381	127.9950409	1448.41687	-1212.562988	75.77456665	1243.194702	-1227.34375	71.70549774	1211.046021	-1231.432251	67.32519531	1150.271729	-1179.370605	76.0168457	1149.273438	-1228.327759	90.20949554	1108.882935	-1227.271606	67.59689331	1086.324829	-1226.582397	69.12210846	1026.766479	-1173.443359	61.51083374	1024.533569	-1223.032715	72.15145874	975.4545898	-1248.427124	79.12735748	985.0285034	-1198.601807	48.78740692	926.8651123	-1209.767212	288.545929	942.5079956	-1337.041626	292.6279297	942.1409912	-1109.274658	83.70080566	991.399231	-1260.181519	84.36119843	990.062561	-1170.927734	202.5963898	737.5587158	-1444.286255	153.4294891	676.9138184	-1427.391235	201.7605896	675.5603027	-1441.429932	193.1700745	497.7707214	-1427.605469	216.7194672	466.0878906	-1283.742065	152.9353333	442.2367859	-1428.597412	145.3588715	326.1834106	-1450.026245	102.0569839	260.256012	-1444.694092	151.4219818	264.3332825	-1450.267212	126.1903839	85.34270477	-1434.126099	169.4240723	96.3089447	-1350.486816	78.45770264	38.93854904	-1374.808472	289.6695251	47.3131485	-1391.233643	238.5824738	32.09137726	-1492.158203	175.0026398	708.2952881	-1006.705566	206.3811951	636.067749	-992.9797974	160.6340179	647.6509399	-1009.873291	160.6115417	496.9354858	-1014.07782	209.1459808	461.4724731	-1151.793091	116.6358414	442.4996338	-1015.623657	91.20693207	323.3170776	-998.2926636	131.0100861	256.1098938	-983.2805176	84.94906616	262.2108459	-1002.458984	90.06122589	86.76454926	-1016.798218	153.0804138	97.00790405	-1084.273071	58.0562973	38.25101089	-1077.677856	261.5985718	43.21331787	-1022.243408	202.3482513	40.9495697	-937.2036133	278.8803101	1368.533569	-1225.31189	318.5148315	1211.105835	-1227.303467	139.0287476	1413.489502	-1400.919312	128.2521057	1348.174683	-1514.890869	120.0881042	1297.707764	-1557.543945	153.7387848	1333.793457	-1574.269409	166.8112793	1296.965088	-1682.632568	190.041214	1211.060669	-1632.716675	197.1385498	1266.02771	-1768.079102	203.940918	1229.732178	-1822.638672	242.3307037	1261.593262	-1815.695435	312.9395142	1191.09082	-1860.566528	255.9740906	1212.803833	-1903.756958	156.4289551	1402.78772	-1042.117798	167.8071594	1335.852661	-909.4974365	218.1307526	1327.666504	-866.7340698	173.1516266	1316.101929	-846.0598755	165.9433746	1289.516846	-795.5391235	222.0242462	1196.064209	-809.4301147	224.1266785	1272.01123	-673.1898804	274.9815674	1260.763916	-633.7052612	230.3197021	1247.579346	-613.361145	313.3372498	1180.579834	-580.9606934	247.1812439	1212.570313	-544.2077026	1512.090088	1285.451538	-2307.407471	1540.660522	1283.398193	0	204.9448	481.9293	-1355.6738	184.8788	479.204	-1082.9355	119.8616	81.4294	-1049.6609	146.2628	80.2545	-1393.2966	233.0086	873.4784	-1139.7555	230.0531	873.7442	-1304.665
608	3.035	350.5274048	1575.456543	-1216.894775	291.9689941	1589.537354	-1140.055054	287.0991516	1589.983765	-1292.235962	127.9830399	1448.413208	-1212.543579	75.76481628	1243.192383	-1227.330933	71.69734955	1211.046997	-1231.424072	67.32167816	1150.269287	-1179.36145	76.0063324	1149.284058	-1228.313965	90.1973877	1108.88269	-1227.265747	67.59040833	1086.322266	-1226.571167	69.12282562	1026.77002	-1173.434692	61.50500488	1024.536011	-1223.032959	72.14602661	975.4519043	-1248.410645	79.13613892	984.987793	-1198.613159	48.79178619	926.8826294	-1209.749512	288.5472107	942.513855	-1337.041626	292.6408386	942.1211548	-1109.278076	83.70706177	991.3981934	-1260.17627	84.3572998	990.0563354	-1170.931885	202.5917053	737.5612793	-1444.281616	153.4219971	676.9182129	-1427.399658	201.7520905	675.5613403	-1441.440918	193.164917	497.7730713	-1427.599976	216.6946411	466.0911865	-1283.741211	152.9277802	442.2357788	-1428.597046	145.3614197	326.1859436	-1450.030029	102.0551605	260.2599792	-1444.700195	151.4155884	264.3368225	-1450.265991	126.1910553	85.34381866	-1434.128174	169.4156036	96.31077576	-1350.484985	78.45439148	38.93631744	-1374.816406	289.67099	47.30877304	-1391.233276	238.5806732	32.09452438	-1492.159546	174.9996643	708.296936	-1006.706116	206.3560028	636.0666504	-992.9674683	160.609848	647.6442261	-1009.877747	160.5977783	496.9390869	-1014.083557	209.1340179	461.4621887	-1151.793335	116.6343536	442.5062866	-1015.622681	91.37466431	323.2960815	-998.6039429	131.0001526	256.1022644	-983.2734985	84.95274353	262.2108154	-1002.46167	90.06732178	86.76202393	-1016.797424	153.0805969	97.00234985	-1084.273071	58.05432129	38.25456619	-1077.67749	261.5875854	43.19455719	-1022.299744	202.3401794	40.95559311	-937.1995239	278.8597107	1368.524536	-1225.287354	318.4984741	1211.108032	-1227.28833	139.0193634	1413.48584	-1400.894653	128.2521667	1348.179932	-1514.876831	120.0707626	1297.707275	-1557.527466	153.7461853	1333.792847	-1574.251465	166.8245239	1296.96582	-1682.610107	190.0434265	1211.057007	-1632.694946	197.153183	1266.021362	-1768.07251	203.9539642	1229.725708	-1822.616089	242.3514709	1261.579102	-1815.677002	312.9482727	1191.065674	-1860.532837	255.9842682	1212.787231	-1903.725586	156.4129486	1402.767822	-1042.091187	167.7737732	1335.803833	-909.4650879	218.1151428	1327.624023	-866.7113647	173.1242065	1316.062378	-846.0528564	165.9248047	1289.450684	-795.5281372	222.0198517	1196.015381	-809.4259033	224.0811462	1271.952759	-673.1768799	275.0028687	1260.78418	-633.6568604	230.2657776	1247.659058	-613.2900391	313.3384399	1180.523804	-580.9633179	247.1640625	1212.493652	-544.2072144	1512.068604	1285.442627	-2307.396729	1540.661011	1283.401367	0	204.9298	481.9321	-1355.6706	184.8659	479.2006	-1082.9384	119.8652	81.4253	-1049.6604	146.2592	80.256	-1393.2968	233.0191	873.4628	-1139.762	230.0551	873.7471	-1304.671
609	3.04	350.4909668	1575.445923	-1216.866333	291.951416	1589.538818	-1140.025146	287.0797729	1589.981201	-1292.203857	127.9720535	1448.413818	-1212.524414	75.76643372	1243.192627	-1227.326782	71.67263794	1211.046631	-1231.400635	67.32223511	1150.267456	-1179.353638	76.00262451	1149.283569	-1228.309814	90.19923401	1108.883057	-1227.258423	67.58408356	1086.319092	-1226.57312	69.11231995	1026.763794	-1173.43457	61.49680328	1024.533447	-1223.026367	72.16403961	975.4123535	-1248.42749	79.09625244	985.0360718	-1198.618896	48.78801346	926.8759766	-1209.745239	288.5437012	942.5211182	-1337.037476	292.638916	942.1221924	-1109.274292	83.70397949	991.4034424	-1260.184692	84.35351563	990.0599365	-1170.916382	202.5852356	737.5632935	-1444.286255	153.4153442	676.9364624	-1427.410278	201.7451935	675.5693359	-1441.440918	193.1592255	497.7795715	-1427.600464	216.6939545	466.0926208	-1283.733887	152.928299	442.2426147	-1428.604004	145.3480988	326.1862183	-1450.026855	102.051651	260.258606	-1444.697266	151.4129486	264.3383789	-1450.263184	126.1858063	85.33865356	-1434.130127	169.4246368	96.31728363	-1350.481567	78.4365387	38.94004822	-1374.824951	289.6730347	47.31116104	-1391.230957	238.5863647	32.09417343	-1492.158569	174.9871368	708.2947388	-1006.707153	206.3551331	636.0672607	-992.9699097	160.6083221	647.6546021	-1009.879639	160.5945282	496.9341125	-1014.085144	209.1326294	461.4665222	-1151.801514	116.6275024	442.5052795	-1015.616333	91.40111542	323.3067322	-998.6103516	130.9883575	256.1002197	-983.2699585	84.95124054	262.2113953	-1002.467896	90.0714035	86.75930023	-1016.798462	153.080658	97.00616455	-1084.27063	58.07017136	38.24577713	-1077.675903	261.605011	43.2121048	-1022.239319	202.3423004	40.9526825	-937.1937256	278.8473206	1368.514038	-1225.268677	318.4893188	1211.110962	-1227.264893	139.0001678	1413.482788	-1400.869385	128.2276154	1348.167358	-1514.850708	120.0837936	1297.701172	-1557.514893	153.7410278	1333.795532	-1574.229736	166.8322754	1296.968018	-1682.598877	190.0360565	1211.044312	-1632.678467	197.1653442	1266.010864	-1768.031494	203.9656677	1229.723389	-1822.60498	242.3695984	1261.567017	-1815.656616	312.9400024	1191.034546	-1860.501831	256.0037842	1212.757935	-1903.693604	156.394104	1402.746338	-1042.066772	167.7511597	1335.767212	-909.4685669	218.0577393	1327.584961	-866.7001953	173.0947113	1316.013428	-846.0390625	165.9061737	1289.374756	-795.5180664	222.0093231	1195.970459	-809.4352417	224.0726929	1271.737061	-673.2389526	275.073761	1260.578979	-633.5023193	230.2555389	1247.579712	-613.2956543	313.3315125	1180.460449	-580.9697266	247.1552124	1212.412964	-544.2059937	1512.072998	1285.440308	-2307.39624	1540.657837	1283.394043	0	204.9266	481.9361	-1355.6672	184.8636	479.2003	-1082.9433	119.8674	81.4259	-1049.6596	146.2613	80.2566	-1393.2962	233.0168	873.4647	-1139.7595	230.0517	873.7536	-1304.669
610	3.045	350.479126	1575.453735	-1216.820068	291.9475403	1589.544189	-1139.992432	287.0648499	1589.979858	-1292.170776	127.9627991	1448.398682	-1212.50647	75.73948669	1243.191528	-1227.325073	71.65880585	1211.03772	-1231.395142	67.32041168	1150.260864	-1179.341187	76.00553894	1149.268433	-1228.30249	90.19919586	1108.886108	-1227.250732	67.57946014	1086.321167	-1226.557861	69.10892487	1026.767944	-1173.434692	61.49068832	1024.533081	-1223.036255	72.11338043	975.4262695	-1248.422974	79.11296082	984.9779663	-1198.599487	48.69315338	926.8895874	-1209.759155	288.5423584	942.5286255	-1337.031372	292.631134	942.1212769	-1109.27478	83.7088089	991.3981934	-1260.169067	84.33792877	990.0595093	-1170.919922	202.5861053	737.5610962	-1444.289917	153.4141541	676.9277344	-1427.427002	201.7451477	675.553833	-1441.435425	193.1456604	497.7775574	-1427.593018	216.6724854	466.1001282	-1283.746704	152.9180908	442.2456055	-1428.609619	145.3419037	326.1877136	-1450.033691	102.0429688	260.2597961	-1444.692749	151.4049988	264.3330688	-1450.259399	126.1882095	85.34116364	-1434.131836	169.4228058	96.3144455	-1350.483887	78.43706512	38.93588638	-1374.827881	289.6698608	47.30701447	-1391.233521	238.5779572	32.08787537	-1492.161377	174.9872437	708.2944336	-1006.708435	206.3590546	636.0608521	-992.9794312	160.5954132	647.6448975	-1009.878296	160.5835876	496.9339294	-1014.082458	209.1438904	461.4749451	-1151.797974	116.623497	442.5025024	-1015.624146	91.17429352	323.3038635	-998.3027954	130.9896545	256.1008606	-983.2758179	84.93729401	262.2117615	-1002.461731	90.06475067	86.7554245	-1016.798096	153.0779572	97.0043869	-1084.271729	58.05833817	38.24658966	-1077.673706	261.6065674	43.20629501	-1022.247742	202.3429108	40.95569611	-937.1967773	278.8283081	1368.510864	-1225.244385	318.4680786	1211.105103	-1227.251953	138.9759521	1413.483643	-1400.849976	128.226532	1348.155396	-1514.822754	120.0921631	1297.699951	-1557.515015	153.7344055	1333.793335	-1574.210327	166.861557	1296.968994	-1682.587524	190.0698395	1210.951538	-1632.520996	197.2059937	1266.000732	-1768.043213	203.9804993	1229.723022	-1822.580444	242.3882446	1261.546753	-1815.628662	312.9567871	1191.010864	-1860.478271	256.0096436	1212.743652	-1903.670166	156.3864746	1402.72876	-1042.038696	167.6929626	1335.741455	-909.4538574	218.0202026	1327.535767	-866.6769409	173.0748444	1315.977417	-846.0161133	165.8871918	1289.299561	-795.5009766	222.0293121	1195.928223	-809.4372559	224.0641174	1271.792847	-673.1924438	275.0178223	1260.749146	-633.6022949	230.2991791	1247.440552	-613.2867432	313.3171387	1180.395264	-580.9661255	247.1487122	1212.338379	-544.2042236	1512.057007	1285.450806	-2307.383301	1540.659668	1283.401489	0	204.9091	481.9388	-1355.6699	184.8637	479.2044	-1082.9402	119.8626	81.4231	-1049.66	146.262	80.2564	-1393.2982	233.0119	873.4633	-1139.7609	230.0513	873.7583	-1304.67
